{
  "source": "C:\\Users\\Peter\\Desktop\\stuff\\MIUN\\quantitative_research\\video_compression\\videos\\BVI-HD\\BVI-HD_CDVL_videos\\ORIG\\Typing_1920x1080_60fps.mp4",
  "output": "C:\\Users\\Peter\\Desktop\\stuff\\MIUN\\quantitative_research\\video_compression\\compressed_videos\\BVI-HD\\av1\\2.5\\Typing_1920x1080_60fps_av1.mkv",
  "codec": "av1",
  "ok": "Input #0, mov,mp4,m4a,3gp,3g2,mj2, from 'C:\\Users\\Peter\\Desktop\\stuff\\MIUN\\quantitative_research\\video_compression\\videos\\BVI-HD\\BVI-HD_CDVL_videos\\ORIG\\Typing_1920x1080_60fps.mp4':\n  Metadata:\n    major_brand     : isom\n    minor_version   : 512\n    compatible_brands: isomiso2avc1mp41\n    encoder         : Lavf54.28.101\n  Duration: 00:00:05.00, start: 0.000000, bitrate: 203453 kb/s\n  Stream #0:0[0x1](und): Video: h264 (High 4:4:4 Predictive) (avc1 / 0x31637661), yuv420p(progressive), 1920x1080, 203448 kb/s, 60 fps, 60 tbr, 60 tbn (default)\n    Metadata:\n      handler_name    : VideoHandler\n      vendor_id       : [0][0][0][0]\n[out#0/matroska @ 0000027a24371300] Codec AVOption b:a (set bitrate (in bits/s)) has not been used for any stream. The most likely reason is either wrong type (e.g. a video option with no video streams) or that it is a private option of some decoder which was not actually used for any stream.\nStream mapping:\n  Stream #0:0 -> #0:0 (h264 (native) -> av1 (libsvtav1))\nPress [q] to stop, [?] for help\nSvt[info]: -------------------------------------------\nSvt[info]: SVT [version]:\tSVT-AV1 Encoder Lib v3.1.0-19-g6ecfe8ec\nSvt[info]: SVT [build]  :\tGCC 15.2.0\t 64 bit\nSvt[info]: LIB Build date: Aug 17 2025 11:37:13\nSvt[info]: -------------------------------------------\nSvt[info]: Level of Parallelism: 5\nSvt[info]: Number of PPCS 93\nSvt[info]: [asm level on system : up to avx2]\nSvt[info]: [asm level selected : up to avx2]\nSvt[info]: -------------------------------------------\nSvt[info]: SVT [config]: main profile\ttier (auto)\tlevel (auto)\nSvt[info]: SVT [config]: width / height / fps numerator / fps denominator \t\t: 1920 / 1080 / 60 / 1\nSvt[info]: SVT [config]: bit-depth / color format \t\t\t\t\t: 8 / YUV420\nSvt[info]: SVT [config]: preset / tune / pred struct \t\t\t\t\t: 4 / PSNR / random access\nSvt[info]: SVT [config]: gop size / mini-gop size / key-frame type \t\t\t: 321 / 16 / key frame\nSvt[info]: SVT [config]: BRC mode / target bitrate (kbps)\t\t\t\t: VBR / 2500 \nSvt[info]: SVT [config]: AQ mode / Variance Boost \t\t\t\t\t: 2 / 0\nSvt[info]: SVT [config]: sharpness / luminance-based QP bias \t\t\t\t: 0 / 0\nSvt[info]: SVT [config]: QP scale compress strength \t\t\t\t\t: 0\nSvt[info]: -------------------------------------------\nOutput #0, matroska, to 'C:\\Users\\Peter\\Desktop\\stuff\\MIUN\\quantitative_research\\video_compression\\compressed_videos\\BVI-HD\\av1\\2.5\\Typing_1920x1080_60fps_av1.mkv':\n  Metadata:\n    major_brand     : isom\n    minor_version   : 512\n    compatible_brands: isomiso2avc1mp41\n    encoder         : Lavf62.3.100\n  Stream #0:0(und): Video: av1 (AV01 / 0x31305641), yuv420p(tv, progressive), 1920x1080, q=2-31, 2500 kb/s, 60 fps, 1k tbn (default)\n    Metadata:\n      encoder         : Lavc62.11.100 libsvtav1\n      handler_name    : VideoHandler\n      vendor_id       : [0][0][0][0]\n    Side data:\n      cpb: bitrate max/min/avg: 0/0/2500000 buffer size: 2500000 vbv_delay: N/A\nframe=    0 fps=0.0 q=0.0 size=       0KiB time=N/A bitrate=N/A speed=N/A elapsed=0:00:01.09    \nframe=    0 fps=0.0 q=0.0 size=       0KiB time=N/A bitrate=N/A speed=N/A elapsed=0:00:01.66    \nframe=    0 fps=0.0 q=0.0 size=       0KiB time=N/A bitrate=N/A speed=N/A elapsed=0:00:02.24    \nframe=    0 fps=0.0 q=0.0 size=       0KiB time=N/A bitrate=N/A speed=N/A elapsed=0:00:02.80    \nframe=    0 fps=0.0 q=0.0 size=       0KiB time=N/A bitrate=N/A speed=N/A elapsed=0:00:03.38    \nframe=    0 fps=0.0 q=0.0 size=       0KiB time=N/A bitrate=N/A speed=N/A elapsed=0:00:03.91    \nframe=    0 fps=0.0 q=0.0 size=       0KiB time=N/A bitrate=N/A speed=N/A elapsed=0:00:04.42    \nframe=    0 fps=0.0 q=0.0 size=       0KiB time=N/A bitrate=N/A speed=N/A elapsed=0:00:04.98    \nframe=    0 fps=0.0 q=0.0 size=       0KiB time=N/A bitrate=N/A speed=N/A elapsed=0:00:05.51    \nframe=    1 fps=0.2 q=7.0 size=       1KiB time=00:00:00.00 bitrate=N/A speed=   0x elapsed=0:00:06.05    \nframe=    1 fps=0.2 q=7.0 size=       1KiB time=00:00:00.00 bitrate=N/A speed=   0x elapsed=0:00:06.60    \nframe=    5 fps=0.7 q=33.0 size=       1KiB time=00:00:00.06 bitrate=  85.4kbits/s speed=0.00935x elapsed=0:00:07.12    \nframe=    8 fps=1.0 q=38.0 size=       1KiB time=00:00:00.11 bitrate=  48.8kbits/s speed=0.0152x elapsed=0:00:07.67    \nframe=   13 fps=1.6 q=30.0 size=       1KiB time=00:00:00.20 bitrate=  28.5kbits/s speed=0.0242x elapsed=0:00:08.25    \nframe=   19 fps=2.2 q=33.0 size=       1KiB time=00:00:00.30 bitrate=  19.0kbits/s speed=0.0341x elapsed=0:00:08.80    \nframe=   21 fps=2.3 q=32.0 size=       1KiB time=00:00:00.33 bitrate=  17.1kbits/s speed=0.0358x elapsed=0:00:09.31    \nframe=   24 fps=2.4 q=28.0 size=       1KiB time=00:00:00.38 bitrate=  14.9kbits/s speed=0.0389x elapsed=0:00:09.84    \nframe=   27 fps=2.6 q=33.0 size=       1KiB time=00:00:00.43 bitrate=  13.1kbits/s speed=0.0417x elapsed=0:00:10.38    \nframe=   34 fps=3.1 q=29.0 size=       1KiB time=00:00:00.53 bitrate=  10.7kbits/s speed=0.0489x elapsed=0:00:10.90    \nframe=   37 fps=3.2 q=32.0 size=       1KiB time=00:00:00.60 bitrate=   9.5kbits/s speed=0.0525x elapsed=0:00:11.42    \nframe=   42 fps=3.5 q=27.0 size=       1KiB time=00:00:00.65 bitrate=   8.8kbits/s speed=0.0543x elapsed=0:00:11.96    \nframe=   46 fps=3.7 q=25.0 size=       1KiB time=00:00:00.75 bitrate=   7.6kbits/s speed=0.0598x elapsed=0:00:12.54    \nframe=   49 fps=3.7 q=14.0 size=       1KiB time=00:00:00.80 bitrate=   7.1kbits/s speed=0.0608x elapsed=0:00:13.15    \nframe=   52 fps=3.8 q=23.0 size=       1KiB time=00:00:00.85 bitrate=   6.7kbits/s speed=0.0618x elapsed=0:00:13.75    \nframe=   55 fps=3.9 q=27.0 size=       1KiB time=00:00:00.90 bitrate=   6.3kbits/s speed=0.0631x elapsed=0:00:14.27    \nframe=   57 fps=3.8 q=23.0 size=       1KiB time=00:00:00.91 bitrate=   6.2kbits/s speed=0.0618x elapsed=0:00:14.83    \nframe=   59 fps=3.8 q=25.0 size=       1KiB time=00:00:00.96 bitrate=   5.9kbits/s speed=0.0627x elapsed=0:00:15.41    \nframe=   62 fps=3.9 q=24.0 size=       1KiB time=00:00:01.01 bitrate=   5.6kbits/s speed=0.0635x elapsed=0:00:16.01    \nframe=   66 fps=4.0 q=26.0 size=       1KiB time=00:00:01.08 bitrate=   5.3kbits/s speed=0.0651x elapsed=0:00:16.63    \nframe=   68 fps=4.0 q=26.0 size=       1KiB time=00:00:01.11 bitrate=   5.1kbits/s speed=0.0651x elapsed=0:00:17.15    \nframe=   71 fps=4.0 q=27.0 size=       1KiB time=00:00:01.16 bitrate=   4.9kbits/s speed=0.066x elapsed=0:00:17.68    \nframe=   75 fps=4.1 q=30.0 size=       1KiB time=00:00:01.23 bitrate=   4.6kbits/s speed=0.0677x elapsed=0:00:18.21    \nframe=   80 fps=4.3 q=24.0 size=       1KiB time=00:00:01.31 bitrate=   4.3kbits/s speed=0.0701x elapsed=0:00:18.77    \nframe=   83 fps=4.3 q=29.0 size=       1KiB time=00:00:01.36 bitrate=   4.2kbits/s speed=0.0708x elapsed=0:00:19.29    \nframe=   87 fps=4.4 q=28.0 size=       1KiB time=00:00:01.43 bitrate=   4.0kbits/s speed=0.0724x elapsed=0:00:19.81    \nframe=   91 fps=4.5 q=29.0 size=       1KiB time=00:00:01.50 bitrate=   3.8kbits/s speed=0.0737x elapsed=0:00:20.34    \nframe=   98 fps=4.7 q=30.0 size=       1KiB time=00:00:01.61 bitrate=   3.5kbits/s speed=0.0775x elapsed=0:00:20.85    \nframe=  102 fps=4.8 q=31.0 size=       1KiB time=00:00:01.68 bitrate=   3.4kbits/s speed=0.0787x elapsed=0:00:21.38    \nframe=  107 fps=4.9 q=32.0 size=       1KiB time=00:00:01.76 bitrate=   3.2kbits/s speed=0.0806x elapsed=0:00:21.91    \nframe=  113 fps=5.0 q=4.0 size=       1KiB time=00:00:01.86 bitrate=   3.1kbits/s speed=0.0831x elapsed=0:00:22.44    \nframe=  118 fps=5.1 q=25.0 size=       1KiB time=00:00:01.95 bitrate=   2.9kbits/s speed=0.0849x elapsed=0:00:22.97    \nframe=  122 fps=5.2 q=24.0 size=       1KiB time=00:00:02.01 bitrate=   2.8kbits/s speed=0.0859x elapsed=0:00:23.48    \nframe=  128 fps=5.3 q=24.0 size=       1KiB time=00:00:02.11 bitrate=   2.7kbits/s speed=0.0882x elapsed=0:00:24.00    \nframe=  132 fps=5.4 q=27.0 size=       1KiB time=00:00:02.18 bitrate=   2.6kbits/s speed=0.089x elapsed=0:00:24.54    \nframe=  138 fps=5.5 q=26.0 size=       1KiB time=00:00:02.28 bitrate=   2.5kbits/s speed=0.0911x elapsed=0:00:25.07    \nframe=  146 fps=5.7 q=29.0 size=       1KiB time=00:00:02.41 bitrate=   2.4kbits/s speed=0.0944x elapsed=0:00:25.59    \nframe=  151 fps=5.8 q=31.0 size=       1KiB time=00:00:02.50 bitrate=   2.3kbits/s speed=0.0958x elapsed=0:00:26.10    \nframe=  158 fps=5.9 q=27.0 size=       1KiB time=00:00:02.58 bitrate=   2.2kbits/s speed=0.0969x elapsed=0:00:26.65    \nframe=  163 fps=6.0 q=26.0 size=       1KiB time=00:00:02.70 bitrate=   2.1kbits/s speed=0.0989x elapsed=0:00:27.28    \nframe=  167 fps=6.0 q=26.0 size=       1KiB time=00:00:02.76 bitrate=   2.1kbits/s speed=0.0995x elapsed=0:00:27.80    \nframe=  171 fps=6.0 q=25.0 size=       1KiB time=00:00:02.83 bitrate=   2.0kbits/s speed=0.0999x elapsed=0:00:28.36    \nframe=  175 fps=6.1 q=25.0 size=       1KiB time=00:00:02.90 bitrate=   2.0kbits/s speed= 0.1x elapsed=0:00:28.92    \nframe=  180 fps=6.1 q=19.0 size=       1KiB time=00:00:02.98 bitrate=   1.9kbits/s speed=0.101x elapsed=0:00:29.43    \nframe=  183 fps=6.1 q=20.0 size=       1KiB time=00:00:03.01 bitrate=   1.9kbits/s speed=0.101x elapsed=0:00:29.98    \nframe=  186 fps=6.1 q=25.0 size=       1KiB time=00:00:03.06 bitrate=   1.9kbits/s speed= 0.1x elapsed=0:00:30.52    \nframe=  189 fps=6.1 q=23.0 size=       1KiB time=00:00:03.11 bitrate=   1.8kbits/s speed= 0.1x elapsed=0:00:31.09    \nframe=  195 fps=6.2 q=27.0 size=       1KiB time=00:00:03.23 bitrate=   1.8kbits/s speed=0.102x elapsed=0:00:31.62    \nframe=  198 fps=6.2 q=26.0 size=       1KiB time=00:00:03.28 bitrate=   1.7kbits/s speed=0.102x elapsed=0:00:32.14    \nframe=  202 fps=6.2 q=27.0 size=       1KiB time=00:00:03.33 bitrate=   1.7kbits/s speed=0.102x elapsed=0:00:32.70    \nframe=  207 fps=6.2 q=26.0 size=       1KiB time=00:00:03.40 bitrate=   1.7kbits/s speed=0.102x elapsed=0:00:33.24    \nframe=  213 fps=6.3 q=28.0 size=       1KiB time=00:00:03.53 bitrate=   1.6kbits/s speed=0.105x elapsed=0:00:33.79    \nframe=  217 fps=6.3 q=19.0 size=       1KiB time=00:00:03.60 bitrate=   1.6kbits/s speed=0.105x elapsed=0:00:34.31    \nframe=  219 fps=6.3 q=28.0 size=       1KiB time=00:00:03.63 bitrate=   1.6kbits/s speed=0.104x elapsed=0:00:34.83    \nframe=  221 fps=6.2 q=28.0 size=       1KiB time=00:00:03.66 bitrate=   1.6kbits/s speed=0.104x elapsed=0:00:35.37    \nframe=  229 fps=6.4 q=29.0 size=       1KiB time=00:00:03.80 bitrate=   1.5kbits/s speed=0.106x elapsed=0:00:35.89    \nframe=  233 fps=6.4 q=20.0 size=       1KiB time=00:00:03.86 bitrate=   1.5kbits/s speed=0.106x elapsed=0:00:36.42    \nframe=  235 fps=6.4 q=28.0 size=       1KiB time=00:00:03.90 bitrate=   1.5kbits/s speed=0.106x elapsed=0:00:36.95    \nframe=  241 fps=6.4 q=14.0 size=       1KiB time=00:00:04.00 bitrate=   1.4kbits/s speed=0.107x elapsed=0:00:37.49    \nframe=  245 fps=6.4 q=28.0 size=       1KiB time=00:00:04.06 bitrate=   1.4kbits/s speed=0.107x elapsed=0:00:38.05    \nframe=  249 fps=6.4 q=19.0 size=       1KiB time=00:00:04.13 bitrate=   1.4kbits/s speed=0.107x elapsed=0:00:38.60    \nframe=  253 fps=6.5 q=28.0 size=       1KiB time=00:00:04.20 bitrate=   1.4kbits/s speed=0.107x elapsed=0:00:39.13    \nframe=  257 fps=6.5 q=12.0 size=       1KiB time=00:00:04.26 bitrate=   1.3kbits/s speed=0.108x elapsed=0:00:39.66    \nframe=  261 fps=6.5 q=28.0 size=       1KiB time=00:00:04.33 bitrate=   1.3kbits/s speed=0.108x elapsed=0:00:40.23    \nframe=  265 fps=6.5 q=20.0 size=       1KiB time=00:00:04.40 bitrate=   1.3kbits/s speed=0.108x elapsed=0:00:40.79    \nframe=  269 fps=6.5 q=28.0 size=       1KiB time=00:00:04.43 bitrate=   1.3kbits/s speed=0.107x elapsed=0:00:41.31    \nframe=  273 fps=6.5 q=14.0 size=       1KiB time=00:00:04.53 bitrate=   1.3kbits/s speed=0.108x elapsed=0:00:41.86    \nframe=  279 fps=6.6 q=28.0 size=       1KiB time=00:00:04.63 bitrate=   1.2kbits/s speed=0.109x elapsed=0:00:42.39    \nframe=  283 fps=6.6 q=29.0 size=       1KiB time=00:00:04.66 bitrate=   1.2kbits/s speed=0.109x elapsed=0:00:42.90    \nframe=  287 fps=6.6 q=29.0 size=       1KiB time=00:00:04.76 bitrate=   1.2kbits/s speed=0.11x elapsed=0:00:43.41    \n[out#0/matroska @ 0000027a24371300] video:1304KiB audio:0KiB subtitle:0KiB other streams:0KiB global headers:0KiB muxing overhead: 0.159307%\nframe=  300 fps=6.9 q=37.0 Lsize=    1306KiB time=00:00:04.98 bitrate=2146.8kbits/s speed=0.114x elapsed=0:00:43.70    \n",
  "seconds": 44.28193974494934,
  "probe_out": {}
}